<svg width="52" height="52" viewBox="0 0 52 52" fill="none" xmlns="http://www.w3.org/2000/svg">
<rect opacity="0.2" width="52" height="52" rx="7.42857" fill="#9373FE"/>
<path d="M33.4323 26.5829C33.5836 26.6039 33.7293 26.654 33.8608 26.7305C33.9924 26.8069 34.1074 26.9081 34.1991 27.0282C34.2909 27.1484 34.3577 27.2852 34.3956 27.4308C34.4335 27.5763 34.4419 27.7278 34.4202 27.8766C34.1289 29.8583 33.1844 31.6913 31.7316 33.0943C30.2787 34.4973 28.3979 35.3928 26.3776 35.6434V36.8571C26.3776 37.1602 26.2552 37.4509 26.0372 37.6653C25.8193 37.8796 25.5237 38 25.2154 38C24.9072 38 24.6116 37.8796 24.3936 37.6653C24.1756 37.4509 24.0532 37.1602 24.0532 36.8571V35.6434C22.0332 35.3924 20.1527 34.4968 18.7002 33.0938C17.2476 31.6908 16.3032 29.8581 16.0118 27.8766C15.968 27.5765 16.0473 27.2716 16.2321 27.029C16.4169 26.7864 16.6922 26.6259 16.9973 26.5829C17.3025 26.5398 17.6126 26.6177 17.8593 26.7995C18.106 26.9812 18.2692 27.2519 18.313 27.552C18.5533 29.1835 19.3833 30.6753 20.6509 31.7542C21.9185 32.8332 23.5389 33.427 25.2154 33.427C26.8919 33.427 28.5123 32.8332 29.7799 31.7542C31.0475 30.6753 31.8775 29.1835 32.1179 27.552C32.1395 27.4034 32.1907 27.2605 32.2686 27.1313C32.3464 27.0022 32.4494 26.8894 32.5715 26.7994C32.6937 26.7094 32.8327 26.644 32.9806 26.6068C33.1285 26.5697 33.2812 26.5615 33.4323 26.5829ZM25.2154 15.1429C26.1673 15.1429 27.0657 15.368 27.8583 15.7669C27.3322 16.1307 26.9187 16.6306 26.6636 17.2112C26.4085 17.7918 26.3217 18.4305 26.4127 19.0566C26.5038 19.6827 26.7692 20.2718 27.1796 20.7588C27.59 21.2458 28.1294 21.6117 28.7381 21.816L29.1774 21.9646C29.3453 22.0209 29.4978 22.1142 29.6233 22.2374C29.7488 22.3606 29.844 22.5105 29.9015 22.6754L30.0514 23.1074C30.249 23.6789 30.5907 24.1726 31.0265 24.5554V26.5714C31.0265 28.087 30.4143 29.5404 29.3245 30.612C28.2347 31.6837 26.7566 32.2857 25.2154 32.2857C23.6742 32.2857 22.1961 31.6837 21.1063 30.612C20.0165 29.5404 19.4043 28.087 19.4043 26.5714V20.8571C19.4043 19.3416 20.0165 17.8882 21.1063 16.8165C22.1961 15.7449 23.6742 15.1429 25.2154 15.1429ZM33.351 14C33.5684 14 33.7815 14.06 33.966 14.1731C34.1505 14.2862 34.299 14.448 34.3947 14.64L34.4504 14.7737L34.6015 15.2057C34.761 15.6654 35.0179 16.0864 35.3553 16.4411C35.6928 16.7957 36.1029 17.0758 36.5587 17.2629L36.7737 17.3429L37.213 17.4903C37.4306 17.5633 37.6213 17.6981 37.7609 17.8776C37.9006 18.0571 37.9829 18.2734 37.9976 18.4989C38.0123 18.7245 37.9586 18.9493 37.8434 19.1449C37.7281 19.3405 37.5565 19.4981 37.3502 19.5977L37.213 19.6526L36.7737 19.8011C36.3063 19.9579 35.8781 20.2106 35.5174 20.5424C35.1568 20.8742 34.8719 21.2775 34.6817 21.7257L34.6004 21.9371L34.4504 22.3691C34.3761 22.583 34.2389 22.7704 34.0563 22.9076C33.8736 23.0448 33.6537 23.1257 33.4243 23.14C33.1949 23.1543 32.9664 23.1014 32.7675 22.988C32.5687 22.8746 32.4085 22.7058 32.3073 22.5029L32.2515 22.3691L32.1004 21.9371C31.941 21.4775 31.684 21.0564 31.3466 20.7018C31.0092 20.3471 30.599 20.067 30.1432 19.88L29.9282 19.8L29.4889 19.6526C29.2714 19.5796 29.0807 19.4448 28.941 19.2653C28.8014 19.0857 28.719 18.8695 28.7043 18.6439C28.6896 18.4183 28.7433 18.1935 28.8586 17.998C28.9738 17.8024 29.1454 17.6448 29.3518 17.5451L29.4889 17.4903L29.9282 17.3417C30.3957 17.1849 30.8239 16.9323 31.1845 16.6005C31.5452 16.2687 31.83 15.8653 32.0202 15.4171L32.1016 15.2057L32.2515 14.7737C32.3298 14.5481 32.4779 14.3522 32.6751 14.2135C32.8722 14.0747 33.1085 14.0001 33.351 14Z" fill="#9373FE"/>
</svg>
