<svg width="6" height="11" viewBox="0 0 6 11" fill="none" xmlns="http://www.w3.org/2000/svg">
<path d="M5.87025 5.1906L0.754318 0.128386C0.692604 0.0671654 0.613922 0.0254374 0.528231 0.00848293C0.44254 -0.00847149 0.353692 0.000109673 0.272932 0.0331421C0.192172 0.0661736 0.12313 0.122169 0.0745463 0.194043C0.0259619 0.265917 1.85966e-05 0.350439 0 0.436909L0 10.5631C1.85966e-05 10.6496 0.0259619 10.7341 0.0745463 10.806C0.12313 10.8778 0.192172 10.9338 0.272932 10.9669C0.353692 10.9999 0.44254 11.0085 0.528231 10.9915C0.613922 10.9746 0.692604 10.9328 0.754318 10.8716L5.87025 5.8094C5.91138 5.7688 5.94401 5.72058 5.96628 5.66749C5.98854 5.6144 6 5.55748 6 5.5C6 5.44252 5.98854 5.3856 5.96628 5.33251C5.94401 5.27942 5.91138 5.2312 5.87025 5.1906Z" fill="#9373FE"/>
</svg>
