<svg width="24" height="24" viewBox="0 0 24 24" fill="none" xmlns="http://www.w3.org/2000/svg">
<path d="M18.2222 12.8889V17.3333C18.2222 17.8222 17.8222 18.2222 17.3333 18.2222H6.66667C6.17778 18.2222 5.77778 17.8222 5.77778 17.3333V12.8889C5.77778 12.4 5.37778 12 4.88889 12C4.4 12 4 12.4 4 12.8889V18.2222C4 19.2 4.8 20 5.77778 20H18.2222C19.2 20 20 19.2 20 18.2222V12.8889C20 12.4 19.6 12 19.1111 12C18.6222 12 18.2222 12.4 18.2222 12.8889Z" fill="#4E4E4E"/>
<path d="M11.2669 14L7 9.60425L8.9445 7.60103L11.2669 10.0006L18.0555 3L20 5.00322L11.2669 14Z" fill="#00D354"/>
</svg>
