<svg width="24" height="24" viewBox="0 0 24 24" fill="none" xmlns="http://www.w3.org/2000/svg">
<path d="M18.2222 12.8889V17.3333C18.2222 17.8222 17.8222 18.2222 17.3333 18.2222H6.66667C6.17778 18.2222 5.77778 17.8222 5.77778 17.3333V12.8889C5.77778 12.4 5.37778 12 4.88889 12C4.4 12 4 12.4 4 12.8889V18.2222C4 19.2 4.8 20 5.77778 20H18.2222C19.2 20 20 19.2 20 18.2222V12.8889C20 12.4 19.6 12 19.1111 12C18.6222 12 18.2222 12.4 18.2222 12.8889Z" fill="#4E4E4E"/>
<path d="M15.6525 10.9244L13.2695 12.5956V4.88889C13.2695 4.4 12.6991 4 12.0019 4C11.3047 4 10.7343 4.4 10.7343 4.88889V12.5956L8.3386 10.9244C8.10159 10.7582 7.78014 10.6649 7.44496 10.6649C7.10977 10.6649 6.78832 10.7582 6.55131 10.9244C6.3143 11.0906 6.18115 11.3161 6.18115 11.5511C6.18115 11.7862 6.3143 12.0116 6.55131 12.1778L11.1019 15.3689C11.2192 15.4513 11.3585 15.5167 11.5118 15.5613C11.6652 15.6059 11.8296 15.6288 11.9956 15.6288C12.1616 15.6288 12.326 15.6059 12.4793 15.5613C12.6327 15.5167 12.7719 15.4513 12.8892 15.3689L17.4398 12.1778C17.5572 12.0955 17.6503 11.9978 17.7138 11.8903C17.7773 11.7827 17.81 11.6675 17.81 11.5511C17.81 11.4347 17.7773 11.3195 17.7138 11.212C17.6503 11.1044 17.5572 11.0067 17.4398 10.9244C17.3225 10.8421 17.1832 10.7769 17.0298 10.7323C16.8765 10.6878 16.7122 10.6649 16.5462 10.6649C16.3802 10.6649 16.2159 10.6878 16.0626 10.7323C15.9092 10.7769 15.7699 10.8421 15.6525 10.9244Z" fill="#9373FE"/>
</svg>
