<svg width="24" height="24" viewBox="0 0 24 24" fill="none" xmlns="http://www.w3.org/2000/svg">
<path d="M11.1923 5.57143H13.8077C13.8077 5.23044 13.6699 4.90341 13.4247 4.66229C13.1794 4.42117 12.8468 4.28571 12.5 4.28571C12.1532 4.28571 11.8206 4.42117 11.5753 4.66229C11.3301 4.90341 11.1923 5.23044 11.1923 5.57143ZM9.88462 5.57143C9.88462 4.88944 10.1602 4.23539 10.6506 3.75315C11.1411 3.27092 11.8064 3 12.5 3C13.1936 3 13.8589 3.27092 14.3494 3.75315C14.8398 4.23539 15.1154 4.88944 15.1154 5.57143H20.3462C20.5196 5.57143 20.6859 5.63916 20.8085 5.75972C20.9311 5.88028 21 6.04379 21 6.21429C21 6.38478 20.9311 6.5483 20.8085 6.66885C20.6859 6.78941 20.5196 6.85714 20.3462 6.85714H19.6086L18.0328 18.2203C17.926 18.9903 17.5389 19.6962 16.9434 20.2073C16.3479 20.7184 15.5842 21 14.7937 21H10.2063C9.41583 21 8.65213 20.7184 8.05659 20.2073C7.46106 19.6962 7.07403 18.9903 6.96715 18.2203L5.39138 6.85714H4.65385C4.48044 6.85714 4.31413 6.78941 4.19151 6.66885C4.06889 6.5483 4 6.38478 4 6.21429C4 6.04379 4.06889 5.88028 4.19151 5.75972C4.31413 5.63916 4.48044 5.57143 4.65385 5.57143H9.88462ZM11.1923 10.0714C11.1923 9.90093 11.1234 9.73742 11.0008 9.61686C10.8782 9.4963 10.7119 9.42857 10.5385 9.42857C10.3651 9.42857 10.1987 9.4963 10.0761 9.61686C9.9535 9.73742 9.88462 9.90093 9.88462 10.0714V16.5C9.88462 16.6705 9.9535 16.834 10.0761 16.9546C10.1987 17.0751 10.3651 17.1429 10.5385 17.1429C10.7119 17.1429 10.8782 17.0751 11.0008 16.9546C11.1234 16.834 11.1923 16.6705 11.1923 16.5V10.0714ZM14.4615 9.42857C14.6349 9.42857 14.8013 9.4963 14.9239 9.61686C15.0465 9.73742 15.1154 9.90093 15.1154 10.0714V16.5C15.1154 16.6705 15.0465 16.834 14.9239 16.9546C14.8013 17.0751 14.6349 17.1429 14.4615 17.1429C14.2881 17.1429 14.1218 17.0751 13.9992 16.9546C13.8766 16.834 13.8077 16.6705 13.8077 16.5V10.0714C13.8077 9.90093 13.8766 9.73742 13.9992 9.61686C14.1218 9.4963 14.2881 9.42857 14.4615 9.42857ZM8.26308 18.0467C8.32725 18.5087 8.55946 18.9321 8.91672 19.2387C9.27398 19.5453 9.7321 19.7142 10.2063 19.7143H14.7937C15.2681 19.7145 15.7266 19.5457 16.0841 19.2391C16.4416 18.9325 16.674 18.5089 16.7382 18.0467L18.2892 6.85714H6.71085L8.26308 18.0467Z" fill="#ED213A"/>
</svg>
