<svg width="16" height="16" viewBox="0 0 16 16" fill="none" xmlns="http://www.w3.org/2000/svg">
<path d="M4.44499 5.09124C4.37374 5.85124 4.32374 7.19624 4.77249 7.76874C4.77249 7.76874 4.56124 6.29124 6.45499 4.43749C7.21748 3.69124 7.39374 2.67624 7.12749 1.91499C6.97624 1.48374 6.69999 1.12749 6.45999 0.878737C6.31999 0.732487 6.42748 0.491237 6.63124 0.499987C7.86374 0.554987 9.86123 0.897487 10.71 3.02749C11.0825 3.96249 11.11 4.92874 10.9325 5.91124C10.82 6.53874 10.42 7.93374 11.3325 8.10499C11.9837 8.22749 12.2987 7.70999 12.44 7.33749C12.4987 7.18249 12.7025 7.14374 12.8125 7.26749C13.9125 8.51874 14.0062 9.99249 13.7787 11.2612C13.3387 13.7137 10.855 15.4987 8.38749 15.4987C5.30499 15.4987 2.85124 13.735 2.21499 10.5425C1.95874 9.25374 2.08874 6.70374 4.07624 4.90374C4.22374 4.76874 4.46499 4.88874 4.44499 5.09124Z" fill="url(#paint0_radial_94_5145)"/>
<path d="M9.51374 9.67751C8.37749 8.21501 8.88624 6.54626 9.16499 5.88126C9.20249 5.79376 9.10249 5.71126 9.02374 5.76501C8.53499 6.09751 7.53374 6.88001 7.06749 7.98126C6.43624 9.47001 6.48124 10.1988 6.85499 11.0888C7.07999 11.625 6.81874 11.7388 6.68749 11.7588C6.55999 11.7788 6.44249 11.6938 6.34874 11.605C6.07909 11.346 5.88691 11.0171 5.79374 10.655C5.77374 10.5775 5.67249 10.5563 5.62624 10.62C5.27624 11.1038 5.09499 11.88 5.08624 12.4288C5.05874 14.125 6.45999 15.5 8.15499 15.5C10.2912 15.5 11.8475 13.1375 10.62 11.1625C10.2637 10.5875 9.92874 10.2113 9.51374 9.67751Z" fill="url(#paint1_radial_94_5145)"/>
<defs>
<radialGradient id="paint0_radial_94_5145" cx="0" cy="0" r="1" gradientUnits="userSpaceOnUse" gradientTransform="translate(7.77696 15.5376) rotate(-179.751) scale(8.82346 14.4775)">
<stop offset="0.314" stop-color="#FF9800"/>
<stop offset="0.662" stop-color="#FF6D00"/>
<stop offset="0.972" stop-color="#F44336"/>
</radialGradient>
<radialGradient id="paint1_radial_94_5145" cx="0" cy="0" r="1" gradientUnits="userSpaceOnUse" gradientTransform="translate(8.27249 6.75731) rotate(90.5787) scale(9.23205 6.94781)">
<stop offset="0.214" stop-color="#FFF176"/>
<stop offset="0.328" stop-color="#FFF27D"/>
<stop offset="0.487" stop-color="#FFF48F"/>
<stop offset="0.672" stop-color="#FFF7AD"/>
<stop offset="0.793" stop-color="#FFF9C4"/>
<stop offset="0.822" stop-color="#FFF8BD" stop-opacity="0.804"/>
<stop offset="0.863" stop-color="#FFF6AB" stop-opacity="0.529"/>
<stop offset="0.91" stop-color="#FFF38D" stop-opacity="0.209"/>
<stop offset="0.941" stop-color="#FFF176" stop-opacity="0"/>
</radialGradient>
</defs>
</svg>
