<svg width="17" height="19" viewBox="0 0 17 19" fill="none" xmlns="http://www.w3.org/2000/svg">
<path fill-rule="evenodd" clip-rule="evenodd" d="M9.90792 2.12584C9.48892 1.72371 8.93067 1.49915 8.34992 1.49915C7.76917 1.49915 7.21091 1.72371 6.79192 2.12584L2.16592 6.56584C2.05263 6.67468 1.97637 6.81634 1.94792 6.97084C1.39306 9.99231 1.35215 13.0858 1.82692 16.1208L1.93892 16.8418H4.91592V10.6308C4.91592 10.4319 4.99493 10.2412 5.13559 10.1005C5.27624 9.95986 5.467 9.88084 5.66592 9.88084H11.0339C11.2328 9.88084 11.4236 9.95986 11.5642 10.1005C11.7049 10.2412 11.7839 10.4319 11.7839 10.6308V16.8418H14.7609L14.8729 16.1218C15.3481 13.0865 15.3076 9.99269 14.7529 6.97084C14.7242 6.81622 14.6476 6.67454 14.5339 6.56584L9.90792 2.12584ZM5.75392 1.04384C6.45217 0.374009 7.38232 0 8.34992 0C9.31751 0 10.2477 0.374009 10.9459 1.04384L15.5729 5.48384C15.9129 5.80984 16.1429 6.23584 16.2279 6.69984C16.8112 9.88763 16.8541 13.1508 16.3549 16.3528L16.1749 17.5098C16.1395 17.742 16.0218 17.9537 15.8434 18.1064C15.665 18.2591 15.4377 18.3426 15.2029 18.3418H11.0339C10.835 18.3418 10.6442 18.2628 10.5036 18.1222C10.3629 17.9815 10.2839 17.7908 10.2839 17.5918V11.3808H6.41592V17.5918C6.41592 17.7908 6.3369 17.9815 6.19625 18.1222C6.05559 18.2628 5.86483 18.3418 5.66592 18.3418H1.49692C1.26209 18.3426 1.0348 18.2591 0.856406 18.1064C0.678012 17.9537 0.560378 17.742 0.524916 17.5098L0.344916 16.3528C-0.15427 13.1508 -0.111338 9.88763 0.471916 6.69984C0.556916 6.23584 0.786916 5.80984 1.12692 5.48284L5.75392 1.04384Z" fill="#4E4E4E"/>
</svg>
