<svg width="22" height="22" viewBox="0 0 22 22" fill="none" xmlns="http://www.w3.org/2000/svg">
<path d="M17.8052 6.61765L12.8796 3.17143C11.537 2.23078 9.47616 2.28209 8.1849 3.2826L3.90064 6.6262C3.0455 7.29321 2.36994 8.66143 2.36994 9.73891V15.6394C2.36994 17.82 4.14008 19.5987 6.32069 19.5987H15.5391C17.7197 19.5987 19.4898 17.8285 19.4898 15.6479V9.85008C19.4898 8.69564 18.7459 7.2761 17.8052 6.61765ZM11.5713 16.1781C11.5713 16.5287 11.2805 16.8195 10.9299 16.8195C10.5793 16.8195 10.2885 16.5287 10.2885 16.1781V13.6127C10.2885 13.2621 10.5793 12.9713 10.9299 12.9713C11.2805 12.9713 11.5713 13.2621 11.5713 13.6127V16.1781Z" fill="#B6BDC5"/>
</svg>
