<svg width="22" height="22" viewBox="0 0 22 22" fill="none" xmlns="http://www.w3.org/2000/svg">
<path opacity="0.5" d="M17.8061 6.5C17.8544 6.22418 17.8418 5.94113 17.7691 5.67071C17.6964 5.40029 17.5654 5.14906 17.3853 4.93464C17.2052 4.72023 16.9804 4.54784 16.7266 4.42956C16.4727 4.31129 16.1961 4.25 15.9161 4.25H6.0845C5.80448 4.25 5.52785 4.31129 5.27403 4.42956C5.02022 4.54784 4.79537 4.72023 4.61526 4.93464C4.43515 5.14906 4.30416 5.40029 4.23147 5.67071C4.15878 5.94113 4.14616 6.22418 4.1945 6.5M15.9503 4.25C15.9755 4.016 15.989 3.8999 15.989 3.8036C15.99 3.35872 15.8262 2.92925 15.5292 2.59802C15.2322 2.26679 14.823 2.05728 14.3807 2.0099C14.2853 2 14.1683 2 13.9343 2H8.0663C7.8323 2 7.7144 2 7.619 2.0099C7.17665 2.05728 6.76752 2.26679 6.47052 2.59802C6.17353 2.92925 6.00972 3.35872 6.0107 3.8036C6.0107 3.8999 6.0233 4.0169 6.0494 4.25" stroke="#B6BDC5" stroke-width="1.5"/>
<path d="M13.7003 16.4H8.30029" stroke="#B6BDC5" stroke-width="1.5" stroke-linecap="round"/>
<path d="M2.3459 12.6137C1.9436 9.7661 1.7429 8.3432 2.5961 7.4207C3.4493 6.5 4.9685 6.5 8.0051 6.5H13.9955C17.0321 6.5 18.5513 6.5 19.4045 7.4216C20.2577 8.3432 20.0561 9.7661 19.6547 12.6137L19.2749 15.3137C18.9599 17.5457 18.8024 18.6626 17.9951 19.3313C17.1878 20 15.9971 20 13.6148 20H8.3858C6.0044 20 4.8128 20 4.0055 19.3313C3.1982 18.6626 3.0407 17.5466 2.7257 15.3137L2.3459 12.6137Z" stroke="#B6BDC5" stroke-width="1.5"/>
</svg>
