<svg width="32" height="42" viewBox="0 0 32 42" fill="none" xmlns="http://www.w3.org/2000/svg">
<g filter="url(#filter0_d_153_1103)">
<path d="M16.0625 4.0625C14.1839 4.0625 12.3822 4.80878 11.0538 6.13716C9.72544 7.46554 8.97917 9.26722 8.97917 11.1458V21.0625C8.97917 22.9411 9.72544 24.7428 11.0538 26.0712C12.3822 27.3996 14.1839 28.1458 16.0625 28.1458C17.9411 28.1458 19.7428 27.3996 21.0712 26.0712C22.3996 24.7428 23.1458 22.9411 23.1458 21.0625V11.1458C23.1458 9.26722 22.3996 7.46554 21.0712 6.13716C19.7428 4.80878 17.9411 4.0625 16.0625 4.0625ZM4.72917 19.6458C5.10489 19.6458 5.46522 19.7951 5.7309 20.0608C5.99658 20.3264 6.14583 20.6868 6.14583 21.0625C6.14583 23.6926 7.19062 26.2149 9.05036 28.0746C10.9101 29.9344 13.4324 30.9792 16.0625 30.9792C18.6926 30.9792 21.2149 29.9344 23.0746 28.0746C24.9344 26.2149 25.9792 23.6926 25.9792 21.0625C25.9792 20.6868 26.1284 20.3264 26.3941 20.0608C26.6598 19.7951 27.0201 19.6458 27.3958 19.6458C27.7716 19.6458 28.1319 19.7951 28.3976 20.0608C28.6632 20.3264 28.8125 20.6868 28.8125 21.0625C28.8131 24.1991 27.6575 27.2259 25.5666 29.564C23.4757 31.9021 20.5964 33.3875 17.4792 33.736V36.6458C17.4792 37.0216 17.3299 37.3819 17.0642 37.6476C16.7986 37.9132 16.4382 38.0625 16.0625 38.0625C15.6868 38.0625 15.3264 37.9132 15.0608 37.6476C14.7951 37.3819 14.6458 37.0216 14.6458 36.6458V33.736C11.5286 33.3875 8.64926 31.9021 6.55839 29.564C4.46753 27.2259 3.3119 24.1991 3.3125 21.0625C3.3125 20.6868 3.46176 20.3264 3.72743 20.0608C3.99311 19.7951 4.35344 19.6458 4.72917 19.6458Z" fill="white"/>
</g>
<defs>
<filter id="filter0_d_153_1103" x="0.125" y="0.875" width="31.875" height="40.375" filterUnits="userSpaceOnUse" color-interpolation-filters="sRGB">
<feFlood flood-opacity="0" result="BackgroundImageFix"/>
<feColorMatrix in="SourceAlpha" type="matrix" values="0 0 0 0 0 0 0 0 0 0 0 0 0 0 0 0 0 0 127 0" result="hardAlpha"/>
<feOffset/>
<feGaussianBlur stdDeviation="1.59375"/>
<feComposite in2="hardAlpha" operator="out"/>
<feColorMatrix type="matrix" values="0 0 0 0 1 0 0 0 0 1 0 0 0 0 1 0 0 0 0.6 0"/>
<feBlend mode="normal" in2="BackgroundImageFix" result="effect1_dropShadow_153_1103"/>
<feBlend mode="normal" in="SourceGraphic" in2="effect1_dropShadow_153_1103" result="shape"/>
</filter>
</defs>
</svg>
