<svg width="25" height="24" viewBox="0 0 25 24" fill="none" xmlns="http://www.w3.org/2000/svg">
<path d="M21.5 3.694V7.279C21.5 7.69864 21.3679 8.10763 21.1226 8.44808C20.8773 8.78853 20.5311 9.04319 20.133 9.176L15.5 10.721V17.5C15.4999 18.5032 15.1646 19.4776 14.5474 20.2684C13.9301 21.0593 13.0663 21.6211 12.0932 21.8649C11.12 22.1086 10.0934 22.0201 9.17624 21.6135C8.25912 21.207 7.50416 20.5056 7.03129 19.6208C6.55841 18.7361 6.39473 17.7187 6.56626 16.7303C6.73778 15.7418 7.23467 14.8391 7.978 14.1654C8.72132 13.4917 9.66845 13.0857 10.6689 13.0119C11.6694 12.938 12.6659 13.2007 13.5 13.758V6.44C13.5 5.8104 13.6981 5.19675 14.0662 4.68597C14.4343 4.17519 14.9537 3.79316 15.551 3.594L19.526 2.27C19.7515 2.19488 19.9917 2.17444 20.2267 2.21037C20.4617 2.24629 20.6848 2.33756 20.8776 2.47663C21.0703 2.61571 21.2273 2.79861 21.3355 3.01027C21.4438 3.22193 21.5001 3.45628 21.5 3.694ZM7.49999 1C7.70859 1.00008 7.91193 1.06539 8.08156 1.18679C8.25119 1.30818 8.37862 1.47959 8.44599 1.677L8.57599 2.055C8.72399 2.48875 8.9694 2.88283 9.29338 3.20699C9.61737 3.53115 10.0113 3.77677 10.445 3.925L10.823 4.054C11.0202 4.12157 11.1913 4.24908 11.3125 4.41869C11.4337 4.58831 11.4988 4.79155 11.4988 5C11.4988 5.20845 11.4337 5.41169 11.3125 5.58131C11.1913 5.75092 11.0202 5.87843 10.823 5.946L10.445 6.076C10.0112 6.224 9.61716 6.46941 9.293 6.79339C8.96884 7.11738 8.72322 7.51133 8.57499 7.945L8.44599 8.323C8.37842 8.5202 8.25091 8.69134 8.0813 8.81252C7.91168 8.93369 7.70844 8.99883 7.49999 8.99883C7.29154 8.99883 7.0883 8.93369 6.91869 8.81252C6.74907 8.69134 6.62157 8.5202 6.55399 8.323L6.42399 7.945C6.276 7.51125 6.03059 7.11717 5.7066 6.79301C5.38262 6.46885 4.98867 6.22323 4.55499 6.075L4.17699 5.946C3.9798 5.87843 3.80865 5.75092 3.68747 5.58131C3.5663 5.41169 3.50116 5.20845 3.50116 5C3.50116 4.79155 3.5663 4.58831 3.68747 4.41869C3.80865 4.24908 3.9798 4.12157 4.17699 4.054L4.55499 3.924C4.98875 3.776 5.38283 3.53059 5.70699 3.20661C6.03114 2.88262 6.27676 2.48867 6.42499 2.055L6.55399 1.677C6.62137 1.47959 6.74879 1.30818 6.91842 1.18679C7.08805 1.06539 7.2914 1.00008 7.49999 1Z" fill="white"/>
</svg>
