<svg width="80" height="80" viewBox="0 0 80 80" fill="none" xmlns="http://www.w3.org/2000/svg">
<circle cx="40" cy="40" r="40" fill="#B6BDC5" fill-opacity="0.3"/>
<path fill-rule="evenodd" clip-rule="evenodd" d="M29.4461 27.2789C29.4936 26.8798 29.6335 26.4972 29.8548 26.1616C30.0761 25.826 30.3726 25.5467 30.7208 25.3458C31.0689 25.145 31.4592 25.0281 31.8604 25.0045C32.2617 24.9809 32.6629 25.0512 33.0323 25.2099C34.8992 26.008 39.083 27.9047 44.3919 30.9688C49.7025 34.0346 53.438 36.7118 55.0606 37.9266C56.4458 38.9655 56.4493 41.0258 55.0623 42.0682C53.4556 43.2759 49.7658 45.918 44.3919 49.0225C39.0127 52.1269 34.8781 54.0009 33.0287 54.7884C31.4361 55.4687 29.6536 54.4368 29.4461 52.7193C29.2035 50.7118 28.75 46.1536 28.75 39.9974C28.75 33.8447 29.2018 29.2882 29.4461 27.2789Z" fill="white"/>
</svg>
