<svg width="56" height="56" viewBox="0 0 56 56" fill="none" xmlns="http://www.w3.org/2000/svg">
<circle cx="28" cy="28" r="27.25" stroke="#4E4E4E" stroke-width="1.5"/>
<path fill-rule="evenodd" clip-rule="evenodd" d="M20.6123 19.0952C20.6455 18.8158 20.7435 18.548 20.8984 18.3131C21.0533 18.0782 21.2608 17.8827 21.5045 17.7421C21.7483 17.6015 22.0214 17.5196 22.3023 17.5031C22.5832 17.4866 22.8641 17.5358 23.1226 17.6469C24.4294 18.2056 27.3581 19.5333 31.0743 21.6781C34.7917 23.8242 37.4066 25.6983 38.5424 26.5486C39.5121 27.2758 39.5145 28.718 38.5436 29.4477C37.4189 30.2931 34.836 32.1426 31.0743 34.3157C27.3089 36.4888 24.4146 37.8006 23.1201 38.3519C22.0053 38.8281 20.7575 38.1058 20.6123 36.9035C20.4425 35.4983 20.125 32.3075 20.125 27.9982C20.125 23.6913 20.4412 20.5017 20.6123 19.0952Z" fill="#4E4E4E"/>
</svg>
