<svg width="48" height="48" viewBox="0 0 48 48" fill="none" xmlns="http://www.w3.org/2000/svg">
<circle cx="24" cy="24" r="23.3571" stroke="#4E4E4E" stroke-width="1.28571"/>
<path d="M15.4286 18.8572C15.4286 17.2406 15.4286 16.4332 15.9309 15.9309C16.4332 15.4286 17.2406 15.4286 18.8572 15.4286C20.4737 15.4286 21.2812 15.4286 21.7834 15.9309C22.2857 16.4332 22.2857 17.2406 22.2857 18.8572V29.1429C22.2857 30.7594 22.2857 31.5669 21.7834 32.0692C21.2812 32.5714 20.4737 32.5714 18.8572 32.5714C17.2406 32.5714 16.4332 32.5714 15.9309 32.0692C15.4286 31.5669 15.4286 30.7594 15.4286 29.1429V18.8572ZM25.7143 18.8572C25.7143 17.2406 25.7143 16.4332 26.2166 15.9309C26.7189 15.4286 27.5263 15.4286 29.1429 15.4286C30.7594 15.4286 31.5669 15.4286 32.0692 15.9309C32.5714 16.4332 32.5714 17.2406 32.5714 18.8572V29.1429C32.5714 30.7594 32.5714 31.5669 32.0692 32.0692C31.5669 32.5714 30.7594 32.5714 29.1429 32.5714C27.5263 32.5714 26.7189 32.5714 26.2166 32.0692C25.7143 31.5669 25.7143 30.7594 25.7143 29.1429V18.8572Z" fill="#4E4E4E"/>
</svg>
