<svg width="24" height="24" viewBox="0 0 24 24" fill="none" xmlns="http://www.w3.org/2000/svg">
<path d="M16.7368 5.63158C16.7368 3.07363 14.6632 1 12.1053 1C9.54731 1 7.47369 3.07363 7.47369 5.63158V11.4211C7.47369 13.979 9.54731 16.0526 12.1053 16.0526C14.6632 16.0526 16.7368 13.979 16.7368 11.4211V5.63158Z" fill="#9373FE"/>
<path d="M4 11.421C4 12.4854 4.20965 13.5394 4.61698 14.5228C5.0243 15.5061 5.62133 16.3997 6.37398 17.1523C7.12662 17.905 8.02014 18.502 9.00351 18.9093C9.98689 19.3166 11.0409 19.5263 12.1053 19.5263C13.1697 19.5263 14.2236 19.3166 15.207 18.9093C16.1904 18.502 17.0839 17.905 17.8365 17.1523C18.5892 16.3997 19.1862 15.5061 19.5936 14.5228C20.0009 13.5394 20.2105 12.4854 20.2105 11.421M12.1053 23V20.6842" stroke="#4E4E4E" stroke-width="2" stroke-linecap="round" stroke-linejoin="round"/>
</svg>
