<svg width="24" height="22" viewBox="0 0 24 22" fill="none" xmlns="http://www.w3.org/2000/svg">
<path d="M9.5558 20.8001H14.4442C17.8773 20.8001 19.5944 20.8001 20.8275 19.9916C21.3597 19.643 21.818 19.193 22.1761 18.6672C23 17.4572 23 15.7709 23 12.4005C23 9.03005 23 7.34375 22.1761 6.13375C21.818 5.60794 21.3597 5.1579 20.8275 4.80935C20.0355 4.28905 19.0433 4.10315 17.5242 4.03715C16.7993 4.03715 16.1756 3.49815 16.0337 2.79965C15.9253 2.28801 15.6435 1.82949 15.236 1.5016C14.8286 1.1737 14.3204 0.996541 13.7974 1.00005H10.2026C9.1158 1.00005 8.1797 1.75355 7.9663 2.79965C7.8244 3.49815 7.2007 4.03715 6.4758 4.03715C4.9578 4.10315 3.9656 4.29015 3.1725 4.80935C2.64069 5.15801 2.1828 5.60805 1.825 6.13375C1 7.34375 1 9.02895 1 12.4005C1 15.772 1 17.4561 1.8239 18.6672C2.1803 19.1908 2.6379 19.6407 3.1725 19.9916C4.4056 20.8001 6.1227 20.8001 9.5558 20.8001Z" stroke="#4E4E4E" stroke-width="1.25"/>
<path d="M14.772 9.44798L14.464 9.13998C13.906 8.58183 13.1751 8.22962 12.3909 8.14098C11.6067 8.05234 10.8156 8.23252 10.1471 8.65204C9.47863 9.07156 8.97235 9.70557 8.71113 10.4503C8.44991 11.195 8.44922 12.0064 8.70917 12.7516C8.96912 13.4967 9.47432 14.1316 10.1421 14.5523C10.8098 14.9729 11.6006 15.1544 12.385 15.0671C13.1694 14.9798 13.9009 14.6289 14.4598 14.0717C15.0187 13.5145 15.372 12.7841 15.4617 12M14.772 9.44798L13.1 9.79998M14.772 9.44798V7.59998" stroke="#9373FE" stroke-linecap="round" stroke-linejoin="round"/>
</svg>
