<svg width="24" height="24" viewBox="0 0 24 24" fill="none" xmlns="http://www.w3.org/2000/svg">
<path opacity="0.5" d="M17 9.50012L17.658 9.17112C19.604 8.19812 20.578 7.71112 21.288 8.15112C22 8.59112 22 9.67912 22 11.8541V12.1461C22 14.3221 22 15.4091 21.289 15.8491C20.577 16.2891 19.604 15.8021 17.659 14.8291L17 14.5001V9.50012ZM13.56 7.44012C13.7056 7.57793 13.8221 7.74353 13.9027 7.92714C13.9832 8.11075 14.0261 8.30864 14.0288 8.50912C14.0316 8.70959 13.9941 8.90858 13.9186 9.09433C13.8432 9.28007 13.7312 9.4488 13.5894 9.59053C13.4476 9.73227 13.2788 9.84414 13.093 9.91953C12.9073 9.99492 12.7083 10.0323 12.5078 10.0295C12.3073 10.0266 12.1094 9.98364 11.9259 9.90303C11.7423 9.82241 11.5767 9.70581 11.439 9.56012C11.1659 9.27709 11.0149 8.89811 11.0185 8.50482C11.0221 8.11152 11.18 7.73538 11.4583 7.45739C11.7365 7.17941 12.1128 7.02184 12.5061 7.01861C12.8994 7.01537 13.2772 7.16675 13.56 7.44012Z" stroke="#9373FE" stroke-width="1.5"/>
<path d="M2 11.5C2 8.213 2 6.569 2.908 5.462C3.07409 5.25965 3.25965 5.07409 3.462 4.908C4.57 4 6.212 4 9.5 4C12.787 4 14.431 4 15.538 4.908C15.7404 5.07409 15.9259 5.25965 16.092 5.462C17 6.57 17 8.212 17 11.5V12.5C17 15.787 17 17.431 16.092 18.538C15.9259 18.7404 15.7404 18.9259 15.538 19.092C14.43 20 12.788 20 9.5 20C6.213 20 4.569 20 3.462 19.092C3.25965 18.9259 3.07409 18.7404 2.908 18.538C2 17.43 2 15.788 2 12.5V11.5Z" stroke="#4E4E4E" stroke-width="1.5"/>
</svg>
