<svg width="20" height="20" viewBox="0 0 20 20" fill="none" xmlns="http://www.w3.org/2000/svg">
<path d="M17.2802 10.4901L18.5319 11.6047C18.763 11.7976 18.9174 12.0669 18.9672 12.3638C19.017 12.6607 18.9588 12.9656 18.8032 13.2233L17.294 15.8014C17.177 15.9987 17.0098 16.1616 16.8094 16.2735C16.6068 16.3856 16.3792 16.4451 16.1476 16.4466C16.0039 16.4474 15.861 16.426 15.7239 16.3829L14.122 15.854C13.8414 16.034 13.5497 16.195 13.2469 16.3372L12.9105 17.9613C12.8482 18.26 12.6819 18.527 12.4411 18.7145C12.1973 18.9054 11.895 19.0061 11.5855 18.9997H8.46048C8.15091 19.0061 7.84863 18.9054 7.60482 18.7145C7.36456 18.5267 7.19873 18.2598 7.13683 17.9613L6.799 16.3372C6.5002 16.1931 6.21031 16.0313 5.93087 15.8526L4.32338 16.3829C4.18632 16.426 4.04338 16.4474 3.8997 16.4466C3.66856 16.4449 3.44151 16.3854 3.23926 16.2735C3.03911 16.162 2.87194 15.9996 2.75466 15.8027L1.19148 13.2233C1.02897 12.9632 0.966878 12.6528 1.01684 12.3503C1.06679 12.0477 1.22538 11.7738 1.46286 11.5798L2.71313 10V9.50986L1.46147 8.39528C1.23034 8.2024 1.0759 7.93314 1.02612 7.63624C0.976342 7.33935 1.03451 7.03444 1.1901 6.77672L2.75328 4.19865C2.87037 4.0013 3.03755 3.83842 3.23788 3.72651C3.44013 3.61459 3.66718 3.55509 3.89832 3.55344C4.0407 3.54445 4.18361 3.55753 4.322 3.5922L5.89764 4.14603C6.17917 3.96604 6.47085 3.80497 6.77269 3.66282L7.11052 2.03872C7.17242 1.74016 7.33826 1.47325 7.57851 1.28551C7.82232 1.09464 8.1246 0.993881 8.43417 1.00029H11.5328C11.8424 0.993881 12.1447 1.09464 12.3885 1.28551C12.6308 1.4752 12.797 1.74242 12.8565 2.03872L13.1943 3.66282C13.4943 3.80589 13.7837 3.96742 14.0625 4.14742L15.6713 3.61851C15.8499 3.56042 16.0386 3.54003 16.2254 3.55862C16.4123 3.57721 16.5932 3.63438 16.7568 3.72651C16.9576 3.84004 17.1237 4.00342 17.2414 4.19726L18.8032 6.77672C18.9679 7.03456 19.0332 7.34351 18.9868 7.64593C18.9404 7.94834 18.7856 8.22356 18.5512 8.4202L17.2802 9.50294V10.4901Z" stroke="#4E4E4E" stroke-width="1.66667"/>
<path d="M13.4616 10C13.4616 10.9181 13.0969 11.7985 12.4477 12.4476C11.7986 13.0968 10.9182 13.4615 10.0001 13.4615C9.0821 13.4615 8.20167 13.0968 7.55253 12.4476C6.90338 11.7985 6.5387 10.9181 6.5387 10C6.5387 9.08202 6.90338 8.20159 7.55253 7.55245C8.20167 6.90331 9.0821 6.53862 10.0001 6.53862C10.9182 6.53862 11.7986 6.90331 12.4477 7.55245C13.0969 8.20159 13.4616 9.08202 13.4616 10Z" stroke="#4E4E4E" stroke-width="1.66667"/>
</svg>
