<svg width="24" height="24" viewBox="0 0 24 24" fill="none" xmlns="http://www.w3.org/2000/svg">
<path d="M5.25 20.522C4.63125 20.522 4.10175 20.3018 3.6615 19.8616C3.22125 19.4213 3.00075 18.8915 3 18.272V16.022C3 15.7032 3.108 15.4362 3.324 15.221C3.54 15.0057 3.807 14.8977 4.125 14.897C4.443 14.8962 4.71037 15.0042 4.92712 15.221C5.14387 15.4377 5.2515 15.7047 5.25 16.022V18.272H18.75V16.022C18.75 15.7032 18.858 15.4362 19.074 15.221C19.29 15.0057 19.557 14.8977 19.875 14.897C20.193 14.8962 20.4604 15.0042 20.6771 15.221C20.8939 15.4377 21.0015 15.7047 21 16.022V18.272C21 18.8907 20.7799 19.4206 20.3396 19.8616C19.8994 20.3026 19.3695 20.5227 18.75 20.522H5.25Z" fill="#4E4E4E"/>
<path d="M8.76562 8.96251L10.875 6.85314V14.8969C10.875 15.2156 10.983 15.4826 11.199 15.6979C11.415 15.9131 11.682 16.0211 12 16.0219C12.318 16.0226 12.585 15.915 12.801 15.699C13.017 15.483 13.125 15.2156 13.125 14.8969V6.85314L15.2344 8.96251C15.4601 9.18826 15.7275 9.29626 16.0365 9.28651C16.3455 9.27676 16.6125 9.15939 16.8375 8.93439C17.0445 8.70939 17.1525 8.44689 17.1615 8.14689C17.1705 7.84689 17.0625 7.58439 16.8375 7.35939L12.7875 3.30939C12.675 3.19839 12.5531 3.11889 12.4219 3.07089C12.2906 3.02289 12.15 2.99927 12 3.00002C11.85 3.00077 11.7094 3.02439 11.5781 3.07089C11.4469 3.11739 11.325 3.19689 11.2125 3.30939L7.1625 7.35939C6.93675 7.58439 6.82875 7.84689 6.8385 8.14689C6.84825 8.44689 6.95625 8.70939 7.1625 8.93439C7.38825 9.16014 7.65562 9.27751 7.96462 9.28651C8.27362 9.29551 8.54062 9.18751 8.76562 8.96251Z" fill="#9373FE"/>
</svg>
