<svg width="20" height="20" viewBox="0 0 20 20" fill="none" xmlns="http://www.w3.org/2000/svg">
<g clip-path="url(#clip0_94_5098)">
<path d="M14.1667 7.50166C15.9792 7.51166 16.9608 7.5925 17.6008 8.2325C18.3333 8.965 18.3333 10.1433 18.3333 12.5V13.3333C18.3333 15.6908 18.3333 16.8692 17.6008 17.6017C16.8692 18.3333 15.69 18.3333 13.3333 18.3333H6.66666C4.30999 18.3333 3.13082 18.3333 2.39916 17.6017C1.66666 16.8683 1.66666 15.6908 1.66666 13.3333V12.5C1.66666 10.1433 1.66666 8.965 2.39916 8.2325C3.03916 7.5925 4.02082 7.51166 5.83332 7.50166" stroke="#4E4E4E" stroke-width="1.5" stroke-linecap="round"/>
<path d="M10 12.5V1.66666M10 1.66666L12.5 4.58333M10 1.66666L7.5 4.58333" stroke="#4E4E4E" stroke-width="1.5" stroke-linecap="round" stroke-linejoin="round"/>
</g>
<defs>
<clipPath id="clip0_94_5098">
<rect width="20" height="20" fill="white"/>
</clipPath>
</defs>
</svg>
