<svg width="20" height="16" viewBox="0 0 20 16" fill="none" xmlns="http://www.w3.org/2000/svg">
<path d="M0.833336 9.54755V6.45255C0.833336 6.01052 1.00893 5.5866 1.32149 5.27404C1.63405 4.96148 2.05798 4.78589 2.5 4.78589H4.91667C5.0796 4.78584 5.23895 4.73804 5.375 4.64839L10.375 1.35172C10.5006 1.26899 10.6463 1.2218 10.7966 1.21517C10.9469 1.20853 11.0961 1.2427 11.2286 1.31404C11.361 1.38538 11.4716 1.49124 11.5488 1.62038C11.6259 1.74952 11.6666 1.89713 11.6667 2.04755V13.9526C11.6666 14.103 11.6259 14.2506 11.5488 14.3797C11.4716 14.5089 11.361 14.6147 11.2286 14.6861C11.0961 14.7574 10.9469 14.7916 10.7966 14.7849C10.6463 14.7783 10.5006 14.7311 10.375 14.6484L5.375 11.3517C5.23895 11.2621 5.0796 11.2143 4.91667 11.2142H2.5C2.05798 11.2142 1.63405 11.0386 1.32149 10.7261C1.00893 10.4135 0.833336 9.98958 0.833336 9.54755Z" stroke="#4E4E4E" stroke-width="1.5"/>
<path d="M14.5833 4.25C14.5833 4.25 15.8333 5.5 15.8333 7.58333C15.8333 9.66667 14.5833 10.9167 14.5833 10.9167M17.0833 1.75C17.0833 1.75 19.1667 3.83333 19.1667 7.58333C19.1667 11.3333 17.0833 13.4167 17.0833 13.4167" stroke="#9373FE" stroke-width="1.5" stroke-linecap="round" stroke-linejoin="round"/>
</svg>
