<svg width="20" height="20" viewBox="0 0 20 20" fill="none" xmlns="http://www.w3.org/2000/svg">
<path d="M4.67969 7.53524H2.5C2.25707 7.53533 2.02337 7.63204 1.85156 7.80379C1.67975 7.97564 1.58306 8.20922 1.58301 8.45223V11.547C1.58301 11.7899 1.67983 12.0235 1.85156 12.1954C2.02338 12.3672 2.25705 12.4638 2.5 12.4639H4.91699L5.03223 12.4679C5.30083 12.4876 5.56108 12.5759 5.78711 12.7247L10.7871 16.0216L10.8291 16.0352C10.8439 16.0359 10.859 16.0324 10.8721 16.0255C10.8852 16.0184 10.8966 16.0079 10.9043 15.9952L10.916 15.9522V15.2022L12.1885 16.7677C12.0421 17.0109 11.834 17.2111 11.584 17.3458C11.3324 17.4813 11.0481 17.5469 10.7627 17.5343C10.5487 17.5247 10.3393 17.4711 10.1475 17.379L9.96191 17.2745L4.96191 13.9776L4.91602 13.9639H2.5C1.85922 13.9638 1.24414 13.709 0.791016 13.2559C0.337977 12.8028 0.0830078 12.1878 0.0830078 11.547V8.45223C0.0830587 7.8114 0.337903 7.1964 0.791016 6.74324C1.24413 6.29019 1.85925 6.03533 2.5 6.03524H3.45996L4.67969 7.53524ZM16.5527 3.21883C16.8455 2.92639 17.3204 2.92657 17.6133 3.21883L17.083 3.75008C17.5817 3.25139 17.6122 3.22139 17.6143 3.21981V3.22078L17.6523 3.25887C17.6726 3.28038 17.6999 3.31087 17.7334 3.34871C17.801 3.425 17.8941 3.53533 18.0029 3.67684C18.2206 3.95984 18.5052 4.37379 18.7881 4.91121C19.3547 5.98779 19.916 7.56523 19.916 9.58309C19.916 11.6011 19.3547 13.1784 18.7881 14.255C18.5051 14.7926 18.2207 15.2063 18.0029 15.4893C17.926 15.5893 17.8545 15.6709 17.7969 15.7384L16.8311 14.5518C17.0022 14.327 17.231 13.9936 17.4609 13.5567C17.936 12.6542 18.416 11.3149 18.416 9.58309C18.416 7.85132 17.9359 6.51197 17.4609 5.60945C17.2232 5.15778 16.9873 4.81561 16.8145 4.5909C16.7282 4.47882 16.6576 4.39602 16.6113 4.34383C16.5883 4.31788 16.5706 4.29882 16.5605 4.28816L16.5518 4.27938C16.2599 3.98643 16.2603 3.51138 16.5527 3.21883ZM14.0527 5.71883C14.3455 5.42639 14.8204 5.42657 15.1133 5.71883L14.583 6.25008L15.1143 5.71981L15.1152 5.72176C15.1158 5.72236 15.1173 5.72306 15.1182 5.72371C15.1198 5.72534 15.1219 5.72744 15.124 5.72957C15.1287 5.73434 15.1348 5.74091 15.1416 5.74813C15.1555 5.76281 15.1743 5.78308 15.1963 5.8077C15.2404 5.8571 15.2999 5.92728 15.3691 6.0157C15.5075 6.19257 15.6876 6.44808 15.8662 6.77547C16.2238 7.43113 16.583 8.38814 16.583 9.58309C16.583 10.778 16.2238 11.7341 15.8662 12.3897C15.7483 12.6058 15.6291 12.7899 15.5225 12.9415L14.5244 11.7149C14.5325 11.7006 14.5417 11.6867 14.5498 11.672C14.8171 11.1818 15.083 10.4713 15.083 9.58309C15.083 8.69494 14.8171 7.98432 14.5498 7.49422C14.4163 7.24942 14.2833 7.06195 14.1875 6.93953C14.1399 6.87873 14.1012 6.83367 14.0771 6.80672C14.0656 6.79386 14.0571 6.78493 14.0527 6.78035L14.0518 6.77938C13.7599 6.48643 13.7603 6.01138 14.0527 5.71883ZM10.7627 2.4659C11.0481 2.4533 11.3325 2.51799 11.584 2.6534C11.8355 2.78889 12.0458 2.99022 12.1924 3.23543C12.3389 3.48071 12.4159 3.76126 12.416 4.04695V9.12215L10.916 7.27742V4.04695L10.9043 4.00496C10.8966 3.99218 10.8852 3.98079 10.8721 3.97371C10.859 3.96687 10.8438 3.9633 10.8291 3.96395L10.7871 3.97762L9.12305 5.0743L8.17188 3.90438L9.96191 2.72469L10.1475 2.6202C10.3393 2.52806 10.5487 2.47546 10.7627 2.4659Z" fill="white"/>
<path d="M2.91553 1.1748L16 17.0002" stroke="white" stroke-width="1.5" stroke-linecap="round"/>
</svg>
